<?xml version="1.0" encoding="UTF-8" standalone="no"?>
<svg
   xmlns:dc="http://purl.org/dc/elements/1.1/"
   xmlns:cc="http://creativecommons.org/ns#"
   xmlns:rdf="http://www.w3.org/1999/02/22-rdf-syntax-ns#"
   xmlns:svg="http://www.w3.org/2000/svg"
   xmlns="http://www.w3.org/2000/svg"
   xmlns:sodipodi="http://sodipodi.sourceforge.net/DTD/sodipodi-0.dtd"
   xmlns:inkscape="http://www.inkscape.org/namespaces/inkscape"
   inkscape:export-ydpi="96.000008"
   inkscape:export-xdpi="96.000008"
   inkscape:export-filename="C:\Users\jordan\Desktop\logo.png"
   sodipodi:docname="logo.svg"
   inkscape:version="1.0 (4035a4fb49, 2020-05-01)"
   id="svg8"
   version="1.1"
   viewBox="0 0 135.46666 135.46667"
   height="512"
   width="512">
  <defs
     id="defs2" />
  <sodipodi:namedview
     inkscape:window-maximized="1"
     inkscape:window-y="-9"
     inkscape:window-x="-9"
     inkscape:window-height="1361"
     inkscape:window-width="2560"
     inkscape:snap-to-guides="false"
     inkscape:guide-bbox="true"
     showguides="true"
     units="px"
     showgrid="false"
     inkscape:document-rotation="0"
     inkscape:current-layer="layer2"
     inkscape:document-units="mm"
     inkscape:cy="-56.800581"
     inkscape:cx="240.32128"
     inkscape:zoom="0.7"
     inkscape:pageshadow="2"
     inkscape:pageopacity="0.0"
     borderopacity="1.0"
     bordercolor="#666666"
     pagecolor="#ffffff"
     id="base">
    <sodipodi:guide
       inkscape:color="rgb(0,0,255)"
       inkscape:locked="false"
       inkscape:label=""
       id="guide893"
       orientation="-1,0"
       position="26.458333,160.60209" />
    <sodipodi:guide
       inkscape:color="rgb(0,0,255)"
       inkscape:locked="false"
       inkscape:label=""
       id="guide895"
       orientation="-1,0"
       position="109.00833,165.51578" />
    <sodipodi:guide
       inkscape:color="rgb(0,0,255)"
       inkscape:locked="false"
       inkscape:label=""
       id="guide897"
       orientation="0,1"
       position="26.458333,109.00833" />
    <sodipodi:guide
       inkscape:color="rgb(0,0,255)"
       inkscape:locked="false"
       inkscape:label=""
       id="guide899"
       orientation="0,1"
       position="26.458333,26.458333" />
  </sodipodi:namedview>
  <metadata
     id="metadata5">
    <rdf:RDF>
      <cc:Work
         rdf:about="">
        <dc:format>image/svg+xml</dc:format>
        <dc:type
           rdf:resource="http://purl.org/dc/dcmitype/StillImage" />
        <dc:title></dc:title>
      </cc:Work>
    </rdf:RDF>
  </metadata>
  <g
     id="layer1"
     inkscape:groupmode="layer"
     inkscape:label="Layer 1">
    <circle
       r="67.459618"
       cy="67.73333"
       cx="67.73333"
       id="path854"
       style="display:inline;fill:#0d47a1;fill-opacity:1;stroke:none;stroke-width:0.547428" />
  </g>
  <g
     inkscape:label="Layer 2"
     id="layer2"
     inkscape:groupmode="layer">
    <path
       style="fill:#ffffff;fill-opacity:1;stroke:#ffffff;stroke-width:2.28463;stroke-opacity:1"
       d="m 92.855872,114.08942 q -8.910105,0 -15.249979,-6.3399 -6.339866,-6.33986 -6.339866,-15.249947 0,-8.910094 6.339866,-15.249965 6.339874,-6.339879 15.249979,-6.339879 8.910088,0 15.249958,6.339879 6.33988,6.339871 6.33988,15.249965 0,8.910087 -6.33988,15.249947 -6.33987,6.3399 -15.249958,6.3399 z m 6.625429,-10.05244 3.198499,-3.1985 -8.567371,-8.567368 V 79.477129 h -4.455047 v 14.39323 z m -64.99799,3.8839 q -2.855793,0 -4.854865,-1.99907 -1.99905,-1.99907 -1.99905,-4.85484 V 34.583951 q 0,-2.8558 1.770589,-4.854861 1.770601,-1.999063 3.027155,-1.999063 h 23.074864 q 0.799591,-3.998122 3.941007,-6.568339 3.141374,-2.570216 7.253734,-2.570216 4.112348,0 7.253728,2.570216 3.141384,2.570217 3.940998,6.568339 h 23.074849 q 2.85581,0 4.85488,1.999063 1.99906,1.999061 1.99906,4.854861 v 33.698444 q -1.7135,-1.028086 -3.36986,-1.770598 -1.65635,-0.742513 -3.48408,-1.313661 V 34.583951 H 88.85775 V 49.434117 H 46.591912 V 34.583951 H 34.483311 V 101.06697 H 65.66866 q 0.571198,1.71344 1.370786,3.36982 0.79958,1.65638 1.941932,3.48409 z M 68.752916,34.127021 q 1.941949,0 3.255616,-1.313669 1.313666,-1.313672 1.313666,-3.255606 0,-1.941946 -1.313666,-3.255622 -1.313667,-1.313662 -3.255616,-1.313662 -1.941941,0 -3.255608,1.313662 -1.313674,1.313676 -1.313674,3.255622 0,1.941934 1.313674,3.255606 1.313667,1.313669 3.255608,1.313669 z"
       id="path872" />
  </g>
</svg>
